<svg xmlns="http://www.w3.org/2000/svg" width="1000" height="430" viewBox="0 0 1000 430" font-family="system-ui,sans-serif">
<defs><linearGradient id="bg" x1="0" y1="0" x2="1" y2="1"><stop offset="0%" stop-color="#0f172a"/><stop offset="100%" stop-color="#1a1040"/></linearGradient><linearGradient id="og" x1="0" y1="0" x2="1" y2="0"><stop offset="0%" stop-color="#7c3aed"/><stop offset="100%" stop-color="#a855f7"/></linearGradient><linearGradient id="gg" x1="0" y1="0" x2="1" y2="0"><stop offset="0%" stop-color="#0369a1"/><stop offset="100%" stop-color="#0ea5e9"/></linearGradient></defs>
<rect width="1000" height="430" fill="url(#bg)" rx="16"/>
<rect x="1" y="1" width="998" height="428" fill="none" stroke="#334155" stroke-width="1.5" rx="15"/>
<text x="50" y="52" font-size="22" font-weight="700" fill="#f1f5f9">Claude Opus 4.7  vs  GPT-5.4</text>
<text x="50" y="74" font-size="13" fill="#94a3b8">26 Benchmarks · OpenRouter API · claude-4.7-opus-20260416 · April 2026 · 1,040 real API calls</text>
<line x1="50" y1="90" x2="950" y2="90" stroke="#334155" stroke-width="1"/>
<rect x="50" y="108" width="190" height="92" rx="10" fill="#1e293b" stroke="#334155" stroke-width="1"/>
<text x="145" y="130" font-size="10" fill="#94a3b8" text-anchor="middle">OVERALL SCORE · OPUS 4.7</text>
<text x="145" y="178" font-size="38" font-weight="800" fill="#a78bfa" text-anchor="middle">81.3%</text>
<text x="145" y="195" font-size="10" fill="#94a3b8" text-anchor="middle">avg · 26 benchmarks</text>
<rect x="255" y="108" width="190" height="92" rx="10" fill="#1e293b" stroke="#334155" stroke-width="1"/>
<text x="350" y="130" font-size="10" fill="#94a3b8" text-anchor="middle">OVERALL SCORE · GPT-5.4</text>
<text x="350" y="178" font-size="38" font-weight="800" fill="#38bdf8" text-anchor="middle">76.9%</text>
<text x="350" y="195" font-size="10" fill="#94a3b8" text-anchor="middle">avg · 26 benchmarks</text>
<rect x="460" y="108" width="158" height="92" rx="10" fill="#1e293b" stroke="#334155" stroke-width="1"/>
<text x="539" y="126" font-size="10" fill="#94a3b8" text-anchor="middle">TOTAL COST · OPUS 4.7</text>
<text x="539" y="163" font-size="30" font-weight="800" fill="#fbbf24" text-anchor="middle">$5.54</text>
<text x="539" y="181" font-size="10" fill="#94a3b8" text-anchor="middle">$5/1M in · $25/1M out</text>
<text x="539" y="195" font-size="9" fill="#fbbf24" text-anchor="middle">verified via OpenRouter API</text>
<rect x="632" y="108" width="158" height="92" rx="10" fill="#1e293b" stroke="#334155" stroke-width="1"/>
<text x="711" y="126" font-size="10" fill="#94a3b8" text-anchor="middle">TOTAL COST · GPT-5.4</text>
<text x="711" y="163" font-size="30" font-weight="800" fill="#34d399" text-anchor="middle">$1.89</text>
<text x="711" y="181" font-size="10" fill="#34d399" text-anchor="middle">2.9× cheaper than Opus 4.7</text>
<text x="711" y="195" font-size="9" fill="#94a3b8" text-anchor="middle">$2.50/1M in · $15/1M out</text>
<rect x="804" y="108" width="146" height="92" rx="10" fill="#1e293b" stroke="#334155" stroke-width="1"/>
<text x="877" y="126" font-size="10" fill="#94a3b8" text-anchor="middle">BENCHMARK WINS</text>
<text x="840" y="168" font-size="34" font-weight="800" fill="#a78bfa" text-anchor="middle">10</text>
<text x="840" y="188" font-size="10" fill="#a78bfa" text-anchor="middle">Opus 4.7</text>
<text x="914" y="168" font-size="34" font-weight="800" fill="#38bdf8" text-anchor="middle">9</text>
<text x="914" y="188" font-size="10" fill="#38bdf8" text-anchor="middle">GPT-5.4</text>
<text x="877" y="200" font-size="9" fill="#94a3b8" text-anchor="middle">7 ties</text>
<text x="50" y="232" font-size="12" fill="#94a3b8">Overall score</text>
<text x="50" y="258" font-size="12" fill="#a78bfa">Claude Opus 4.7</text>
<rect x="180" y="244" width="680" height="20" rx="3" fill="#1e293b"/>
<rect x="180" y="244" width="552" height="20" rx="3" fill="url(#og)"/>
<text x="738" y="259" font-size="12" font-weight="700" fill="#a78bfa">81.3%</text>
<text x="50" y="288" font-size="12" fill="#38bdf8">GPT-5.4</text>
<rect x="180" y="274" width="680" height="20" rx="3" fill="#1e293b"/>
<rect x="180" y="274" width="522" height="20" rx="3" fill="url(#gg)"/>
<text x="708" y="289" font-size="12" font-weight="700" fill="#38bdf8">76.9%</text>
<text x="50" y="322" font-size="12" fill="#94a3b8">Cost efficiency  (Score / $)  —  higher is better</text>
<text x="50" y="348" font-size="12" fill="#a78bfa">Claude Opus 4.7</text>
<rect x="180" y="334" width="680" height="20" rx="3" fill="#1e293b"/>
<rect x="180" y="334" width="245" height="20" rx="3" fill="url(#og)" opacity="0.8"/>
<text x="431" y="349" font-size="12" font-weight="700" fill="#a78bfa">0.147</text>
<text x="50" y="378" font-size="12" fill="#38bdf8">GPT-5.4</text>
<rect x="180" y="364" width="680" height="20" rx="3" fill="#1e293b"/>
<rect x="180" y="364" width="680" height="20" rx="3" fill="url(#gg)" opacity="0.8"/>
<text x="866" y="379" font-size="12" font-weight="700" fill="#38bdf8">0.407  (2.8× better)</text>
<text x="500" y="420" font-size="10" fill="#475569" text-anchor="middle">Pricing verified via OpenRouter /api/v1/models · claude-4.7-opus-20260416 confirmed</text>
</svg>